<?xml version="1.0" encoding="UTF-8" standalone="no"?>
<!-- Created with Inkscape (http://www.inkscape.org/) -->

<svg
   xmlns:dc="http://purl.org/dc/elements/1.1/"
   xmlns:cc="http://creativecommons.org/ns#"
   xmlns:rdf="http://www.w3.org/1999/02/22-rdf-syntax-ns#"
   xmlns:svg="http://www.w3.org/2000/svg"
   xmlns="http://www.w3.org/2000/svg"
   xmlns:sodipodi="http://sodipodi.sourceforge.net/DTD/sodipodi-0.dtd"
   xmlns:inkscape="http://www.inkscape.org/namespaces/inkscape"
   width="700"
   height="310"
   id="svg2"
   version="1.1"
   inkscape:version="0.48.5 r10040"
   sodipodi:docname="Novo documento 1">
  <defs
     id="defs4" />
  <sodipodi:namedview
     id="base"
     pagecolor="#ffffff"
     bordercolor="#666666"
     borderopacity="1.0"
     inkscape:pageopacity="0.0"
     inkscape:pageshadow="2"
     inkscape:zoom="0.49497475"
     inkscape:cx="377.76913"
     inkscape:cy="190.24783"
     inkscape:document-units="px"
     inkscape:current-layer="layer1"
     showgrid="false"
     inkscape:window-width="1024"
     inkscape:window-height="729"
     inkscape:window-x="1440"
     inkscape:window-y="0"
     inkscape:window-maximized="1" />
  <metadata
     id="metadata7">
    <rdf:RDF>
      <cc:Work
         rdf:about="">
        <dc:format>image/svg+xml</dc:format>
        <dc:type
           rdf:resource="http://purl.org/dc/dcmitype/StillImage" />
        <dc:title></dc:title>
      </cc:Work>
    </rdf:RDF>
  </metadata>
  <g
     inkscape:label="Camada 1"
     inkscape:groupmode="layer"
     id="layer1"
     transform="translate(0,-742.36218)">
    <g
       transform="matrix(1.2836311,0,0,-1.2804944,-30.807137,1522.2422)"
       inkscape:label="logoTVCvel"
       id="g2993">
      <g
         id="g2995">
        <path
           id="path2997"
           style="fill:#00ff01;fill-opacity:1;fill-rule:nonzero;stroke:none"
           d="m 355.012,582.71 c 0,-14.547 -11.789,-26.336 -26.336,-26.336 -14.547,0 -26.336,11.789 -26.336,26.336 0,14.547 11.789,26.336 26.336,26.336 14.547,0 26.336,-11.789 26.336,-26.336 z"
           inkscape:connector-curvature="0" />
        <path
           id="path2999"
           style="fill:#0000fe;fill-opacity:1;fill-rule:nonzero;stroke:none"
           d="m 247.332,550.929 c 0,-12.891 -10.449,-23.336 -23.336,-23.336 -12.891,0 -23.34,10.445 -23.34,23.336 0,12.887 10.449,23.336 23.34,23.336 12.887,0 23.336,-10.449 23.336,-23.336 z"
           inkscape:connector-curvature="0" />
        <path
           id="path3001"
           style="fill:#0000fe;fill-opacity:1;fill-rule:evenodd;stroke:none"
           d="m 283.227,442.023 c -51.676,4.695 -65.536,55.457 -56.676,78.625 -6.469,-1.227 -14.832,1.855 -16.004,3.054 -13.086,-55.972 36.387,-87.636 72.68,-81.679 z"
           inkscape:connector-curvature="0" />
        <path
           id="path3003"
           style="fill:#0000fe;fill-opacity:1;fill-rule:evenodd;stroke:none"
           d="m 303.082,564.694 c -24.91,6.235 -41.496,-2.945 -49.484,-7.398 -0.422,3.164 -1.965,6.465 -4.059,9.832 11.41,3.902 29.797,8.988 53.543,-2.434 z"
           inkscape:connector-curvature="0" />
        <path
           id="path3005"
           style="fill:#00ff01;fill-opacity:1;fill-rule:evenodd;stroke:none"
           d="m 337.297,549.3 c 6.41,1.391 11.516,4.398 16.016,9.426 38.121,-67.629 -18.446,-111.395 -46.036,-114.461 40.719,18.488 55.446,68.691 30.02,105.035 z"
           inkscape:connector-curvature="0" />
        <path
           id="path3007"
           style="fill:#00ff01;fill-opacity:1;fill-rule:evenodd;stroke:none"
           d="m 294.605,578.55 c -21.847,3.934 -40.246,0.766 -54.968,-9.969 17.34,16.938 36.004,22.727 55.433,22.09 -1.027,-4.105 -1.359,-8.16 -0.465,-12.121 z"
           inkscape:connector-curvature="0" />
        <path
           id="path3009"
           style="fill:#00276c;fill-opacity:1;fill-rule:nonzero;stroke:none"
           d="m 50.02,463.257 28.742,0 0,69.043 26.062,0 0,23.844 -80.824,0 0.027,-23.844 25.993,0 0,-69.043"
           inkscape:connector-curvature="0" />
        <path
           id="path3011"
           style="fill:#00276c;fill-opacity:1;fill-rule:nonzero;stroke:none"
           d="m 169.793,556.226 -16.199,-57.918 -0.254,0 -17.723,57.89 -25.875,-0.082 27.637,-93.039 31.086,0 28.265,93.063"
           inkscape:connector-curvature="0" />
        <path
           id="path3013"
           style="fill:#007128;fill-opacity:1;fill-rule:nonzero;stroke:none"
           d="m 480.063,508.593 c -0.5,8.262 3.355,13.758 11.757,15.637 7.266,1.621 13.633,-2.789 15.16,-9.625 l -26.917,-6.012 m 57.257,-2.609 c -6.429,28.769 -22.765,42.316 -52.105,35.757 -23.356,-5.218 -35.11,-26.234 -30.305,-47.742 5.508,-24.64 26.43,-34.617 50.07,-29.336 16.805,3.754 30.676,14.629 32.809,31.856 l -26.348,-5.891 c -1.484,-4.066 -6.086,-6.891 -10.644,-7.91 -8.832,-1.973 -15.008,2.93 -17.598,11.172 l 54.121,12.094"
           inkscape:connector-curvature="0" />
        <path
           id="path3015"
           style="fill:#007128;fill-opacity:1;fill-rule:nonzero;stroke:none"
           d="m 541.617,463.257 27.711,0 0,92.836 -27.723,0 0.008,-92.836"
           inkscape:connector-curvature="0" />
        <path
           id="path3017"
           style="fill:#007128;fill-opacity:1;fill-rule:nonzero;stroke:none"
           d="m 457.598,556.116 -28.422,0 -15.688,-57.148 -0.254,0 -17.046,57.16 -28.805,0.008 29.758,-92.879 31.339,0"
           inkscape:connector-curvature="0" />
        <path
           id="path3019"
           style="fill:#c80000;fill-opacity:1;fill-rule:nonzero;stroke:none"
           d="m 331.168,516.905 c -2.453,22.582 -16.395,35.579 -41.691,35.704 -28.395,0 -46.727,-18.797 -46.727,-47.188 0,-26.621 16.91,-47.184 46.727,-47.184 26.976,0 42.078,19.301 42.078,37.469 l -27.879,0 c -1.68,-8.453 -5.422,-15.012 -14.973,-15.012 -13.297,0 -17.555,12.618 -17.555,24.727 0,12.113 4.258,24.73 17.555,24.73 11.746,0 14.324,-9.968 14.844,-13.246 l 27.621,0"
           inkscape:connector-curvature="0" />
        <path
           id="path3021"
           style="fill:#c80000;fill-opacity:1;fill-rule:nonzero;stroke:none"
           d="m 141.082,411.609 c -0.437,0.804 -1.09,1.527 -1.965,2.171 -0.871,0.649 -1.859,1.164 -2.957,1.547 -1.082,0.403 -2.215,0.699 -3.402,0.891 -3.528,0.523 -6.817,1.664 -9.871,3.43 -0.262,0.136 -0.539,0.433 -0.836,0.89 -0.297,0.453 -0.446,0.887 -0.446,1.309 0,1.535 0.25,3.07 0.758,4.605 0.524,1.555 1.188,2.766 1.989,3.641 1.293,1.449 3.613,2.711 6.964,3.793 3.368,1.082 7.157,1.625 11.364,1.625 2.511,0 4.449,-0.192 5.808,-0.574 1.379,-0.387 2.071,-0.981 2.071,-1.782 0,-1.308 -0.184,-2.32 -0.551,-3.039 -0.348,-0.715 -0.731,-1.195 -1.153,-1.437 -0.398,-0.227 -1.117,-0.543 -2.144,-0.942 -1.102,-0.386 -2.059,-0.789 -2.879,-1.207 -0.805,-0.418 -1.492,-0.82 -2.07,-1.203 -0.574,-0.383 -0.934,-0.574 -1.074,-0.574 -0.172,0 -0.262,0.066 -0.262,0.207 0,0.297 0.308,0.742 0.918,1.336 0.629,0.609 1.394,1.145 2.304,1.598 0.957,0.504 1.438,0.828 1.438,0.968 0,0.227 -0.531,0.34 -1.598,0.34 -3.226,0 -6.211,-0.289 -8.953,-0.863 -2.738,-0.578 -4.902,-1.336 -6.492,-2.277 -1.57,-0.946 -2.355,-1.903 -2.355,-2.883 0,-0.61 0.324,-1.047 0.968,-1.309 0.664,-0.242 2.114,-0.66 4.348,-1.254 2.234,-0.593 4.23,-1.277 5.992,-2.043 2.531,-1.082 4.41,-2.207 5.629,-3.379 1.223,-1.168 1.832,-2.476 1.832,-3.925 0,-0.996 -0.242,-1.996 -0.73,-3.012 -0.473,-0.992 -1.172,-1.91 -2.094,-2.746 -0.926,-0.84 -1.992,-1.527 -3.195,-2.07 -1.032,-0.434 -2.329,-0.844 -3.903,-1.231 -1.551,-0.383 -3.246,-0.68 -5.078,-0.891 -1.812,-0.226 -3.551,-0.339 -5.207,-0.339 -3.055,0 -5.516,0.289 -7.383,0.863 -1.851,0.578 -2.777,1.449 -2.777,2.621 0,0.523 0.316,1.332 0.945,2.434 0.625,1.117 1.367,1.867 2.223,2.25 0.75,0.296 1.476,0.464 2.172,0.5 0.699,0.05 1.05,-0.028 1.05,-0.239 0,-0.05 -0.027,-0.105 -0.082,-0.156 -0.05,-0.051 -0.113,-0.098 -0.179,-0.129 -0.071,-0.035 -0.141,-0.07 -0.211,-0.105 -0.348,-0.141 -0.637,-0.254 -0.863,-0.34 -0.211,-0.07 -0.387,-0.149 -0.524,-0.238 -0.125,-0.071 -0.183,-0.172 -0.183,-0.313 0,-0.367 1.804,-0.551 5.417,-0.551 3.141,0 5.715,0.114 7.723,0.34 2.008,0.227 3.777,0.637 5.317,1.231 1.535,0.593 2.929,1.414 4.187,2.461 z"
           inkscape:connector-curvature="0" />
        <path
           id="path3023"
           style="fill:#c80000;fill-opacity:1;fill-rule:nonzero;stroke:none"
           d="m 152.836,411.347 0,-0.653 c 0,-1.031 0.254,-1.832 0.758,-2.41 0.508,-0.574 1.172,-0.863 1.992,-0.863 0.855,0 1.734,0.199 2.644,0.602 0.922,0.402 1.84,0.933 2.747,1.597 0.91,0.664 2.015,1.555 3.324,2.668 l 0,-1.594 c -1.969,-2.375 -3.821,-4.199 -5.547,-5.472 -1.731,-1.258 -3.484,-1.887 -5.262,-1.887 -1.554,0 -2.785,0.606 -3.691,1.809 -0.91,1.203 -1.363,2.851 -1.363,4.949 0,1.832 0.429,3.488 1.281,4.973 0.855,1.5 2.254,3.078 4.191,4.738 1.324,1.133 2.645,1.988 3.953,2.566 1.309,0.574 2.477,0.864 3.508,0.864 0.82,0 1.465,-0.192 1.938,-0.579 0.488,-0.363 0.73,-0.921 0.73,-1.675 0,-1.098 -0.41,-2.196 -1.23,-3.297 -0.821,-1.082 -2.075,-2.164 -3.77,-3.246 -1.676,-1.067 -3.742,-2.094 -6.203,-3.09 z m 0.262,1.703 c 1.57,0.609 2.914,1.371 4.031,2.277 1.117,0.907 1.937,1.77 2.461,2.59 0.543,0.84 0.812,1.449 0.812,1.832 0,0.402 -0.183,0.606 -0.55,0.606 -0.313,0 -0.829,-0.204 -1.543,-0.606 -0.7,-0.398 -1.414,-0.922 -2.149,-1.57 -0.715,-0.645 -1.359,-1.403 -1.937,-2.278 -0.575,-0.871 -0.95,-1.824 -1.125,-2.851 z"
           inkscape:connector-curvature="0" />
        <path
           id="path3025"
           style="fill:#c80000;fill-opacity:1;fill-rule:nonzero;stroke:none"
           d="m 176.32,408.702 c 2.407,2.129 4.477,3.981 6.203,5.551 1.727,1.59 3.079,2.836 4.059,3.742 0.992,0.91 1.867,1.676 2.617,2.305 0.75,0.629 1.231,0.941 1.438,0.941 0.402,0.02 0.785,-0.398 1.152,-1.254 0.367,-0.839 0.551,-1.511 0.551,-2.015 0,-0.332 -0.559,-1.117 -1.676,-2.356 -1.098,-1.222 -1.93,-2.199 -2.488,-2.933 -0.539,-0.735 -0.809,-1.5 -0.809,-2.305 0,-0.469 0.156,-0.855 0.469,-1.152 0.316,-0.278 0.691,-0.418 1.129,-0.418 0.504,0 1.105,0.261 1.805,0.785 0.714,0.523 1.832,1.457 3.351,2.801 l 0,-1.86 c -1.519,-1.429 -2.898,-2.668 -4.137,-3.715 -1.238,-1.031 -2.32,-1.808 -3.246,-2.332 -0.906,-0.503 -1.668,-0.757 -2.277,-0.757 -0.543,0 -0.996,0.199 -1.363,0.601 -0.368,0.418 -0.547,0.934 -0.547,1.547 0,0.59 0.101,1.195 0.312,1.805 0.211,0.609 0.532,1.336 0.969,2.172 0.438,0.839 1.012,1.843 1.727,3.011 0.714,1.188 1.371,2.27 1.964,3.246 -1.781,-1.449 -3.359,-2.843 -4.738,-4.187 -1.379,-1.344 -2.504,-2.524 -3.379,-3.535 -0.871,-0.996 -1.562,-1.781 -2.066,-2.356 -0.977,-1.082 -1.887,-1.625 -2.723,-1.625 -0.906,0 -1.363,0.649 -1.363,1.938 0,0.523 0.344,1.457 1.023,2.801 0.68,1.363 1.649,3.089 2.907,5.183 0.101,0.141 0.156,0.36 0.156,0.656 0,0.348 -0.176,0.524 -0.524,0.524 -0.382,0 -0.941,-0.367 -1.675,-1.102 -0.715,-0.715 -2.114,-2.222 -4.188,-4.527 -0.578,-0.645 -1.23,-1.492 -1.965,-2.539 -0.715,-1.031 -1.23,-1.719 -1.543,-2.07 -0.316,-0.348 -0.629,-0.524 -0.945,-0.524 -0.629,0 -1.211,0.559 -1.754,1.676 -0.539,1.117 -0.808,2.418 -0.808,3.902 0,1.082 0.171,2.016 0.523,2.801 0.363,0.785 0.922,1.762 1.676,2.934 1.168,1.691 2.117,2.894 2.851,3.609 0.75,0.734 1.535,1.102 2.356,1.102 0.508,0 0.933,-0.106 1.285,-0.317 0.348,-0.191 0.523,-0.461 0.523,-0.808 0,-0.368 -0.324,-0.969 -0.968,-1.809 -0.629,-0.836 -1.434,-1.699 -2.411,-2.59 -0.523,-0.508 -1.019,-1.137 -1.492,-1.887 -0.472,-0.73 -0.707,-1.265 -0.707,-1.597 0,-0.469 0.184,-0.707 0.551,-0.707 0.297,0 1.047,0.613 2.25,1.836 1.203,1.218 2.523,2.547 3.953,3.976 1.449,1.449 2.785,2.645 4.008,3.586 1.238,0.961 2.285,1.442 3.141,1.442 0.523,0 0.949,-0.2 1.281,-0.602 0.351,-0.383 0.523,-0.863 0.523,-1.441 0,-0.383 -0.261,-1.082 -0.785,-2.094 -0.523,-0.996 -1.289,-2.235 -2.305,-3.719 -0.992,-1.465 -2.285,-3.246 -3.871,-5.34 z"
           inkscape:connector-curvature="0" />
        <path
           id="path3027"
           style="fill:#c80000;fill-opacity:1;fill-rule:nonzero;stroke:none"
           d="m 193.676,410.093 0,1.832 c 2.441,2.652 4.547,5.148 6.308,7.484 1.782,2.34 3.184,4.2 4.215,5.578 1.031,1.379 1.938,2.348 2.723,2.907 0.785,0.574 1.769,0.863 2.957,0.863 0.594,0 0.891,-0.227 0.891,-0.68 0,-0.367 -0.243,-0.91 -0.735,-1.625 -0.469,-0.715 -1.082,-1.449 -1.832,-2.199 -0.992,-0.977 -1.973,-2.207 -2.93,-3.691 -0.945,-1.465 -2.015,-3.34 -3.222,-5.629 0.945,0.734 2.027,1.597 3.246,2.593 1.242,1.012 2.246,1.797 3.012,2.356 0.785,0.574 1.554,1.031 2.304,1.359 0.766,0.332 1.535,0.5 2.305,0.5 0.488,0 0.801,-0.09 0.941,-0.261 0.157,-0.176 0.235,-0.516 0.235,-1.024 0,-1.324 -0.321,-2.625 -0.969,-3.898 -0.645,-1.258 -1.57,-2.567 -2.773,-3.926 -1.204,-1.363 -2.688,-2.848 -4.45,-4.453 0.61,-0.227 1.239,-0.34 1.883,-0.34 2.024,0 4.738,1.547 8.141,4.633 l 0,-1.883 c -1.324,-1.188 -2.625,-2.305 -3.899,-3.352 -1.257,-1.046 -2.445,-1.886 -3.562,-2.511 -1.117,-0.629 -2.145,-0.946 -3.086,-0.946 -0.352,0 -0.727,0.047 -1.129,0.133 -0.383,0.071 -0.742,0.156 -1.07,0.262 -0.332,0.121 -0.762,0.289 -1.285,0.496 -0.524,0.211 -0.926,0.359 -1.204,0.445 -0.558,-0.14 -0.871,-0.207 -0.941,-0.207 -0.613,0 -1.328,0.242 -2.148,0.731 -0.575,-1.117 -1.211,-2.555 -1.911,-4.321 -0.679,-1.777 -1.257,-3.191 -1.726,-4.238 -0.473,-1.047 -1.102,-2.051 -1.887,-3.012 -0.437,-0.437 -0.742,-0.656 -0.918,-0.656 -0.75,0 -1.125,0.664 -1.125,1.992 0,1.153 0.238,2.356 0.707,3.614 0.453,1.238 1.024,2.414 1.703,3.531 0.664,1.117 1.395,2.246 2.2,3.379 0.8,1.152 1.371,2.008 1.699,2.566 2.758,4.746 4.906,8.785 6.441,12.121 -4.015,-4.886 -7.051,-8.394 -9.109,-10.523 z m 10.629,-1.285 c 1.726,1.816 3.008,3.359 3.847,4.633 0.856,1.273 1.282,2.253 1.282,2.933 0,0.645 -0.321,0.969 -0.969,0.969 -0.871,0 -2.102,-0.727 -3.692,-2.172 -1.57,-1.434 -3.191,-3.371 -4.867,-5.812 1.289,0.14 2.157,0.183 2.59,0.128 0.438,-0.035 1.039,-0.261 1.809,-0.679 z"
           inkscape:connector-curvature="0" />
        <path
           id="path3029"
           style="fill:#c80000;fill-opacity:1;fill-rule:nonzero;stroke:none"
           d="m 215.508,410.273 0,1.703 c 0.941,1.117 1.66,2.066 2.148,2.855 -0.558,0.192 -0.968,0.426 -1.23,0.703 -0.246,0.282 -0.367,0.7 -0.367,1.258 0,0.629 0.261,1.422 0.785,2.383 0.523,0.961 1.168,1.859 1.937,2.695 0.766,0.84 1.465,1.379 2.094,1.625 0.246,0.121 0.48,0.184 0.707,0.184 0.348,0 0.523,-0.168 0.523,-0.5 0,-0.297 -0.269,-0.899 -0.812,-1.805 3.598,0.559 5.863,0.836 6.809,0.836 0.367,0 0.617,-0.031 0.757,-0.101 0.297,-0.161 0.543,-0.524 0.735,-1.102 0.191,-0.574 0.285,-1.152 0.285,-1.727 0,-0.367 -0.164,-0.769 -0.496,-1.203 -0.313,-0.422 -0.863,-1.039 -1.649,-1.859 -0.925,-0.996 -1.703,-2.078 -2.332,-3.246 -0.625,-1.172 -0.941,-2.051 -0.941,-2.645 0,-0.82 0.508,-1.23 1.519,-1.23 1.063,0 2.915,1.082 5.551,3.246 l 0,-1.754 c -1.449,-1.52 -2.644,-2.715 -3.586,-3.586 -0.945,-0.875 -1.816,-1.57 -2.621,-2.094 -0.801,-0.508 -1.515,-0.761 -2.144,-0.761 -0.735,0 -1.344,0.332 -1.832,0.996 -0.489,0.679 -0.735,1.656 -0.735,2.929 0,0.754 0.192,1.61 0.575,2.567 0.386,0.961 0.945,2 1.675,3.117 0.75,1.133 1.59,2.258 2.516,3.375 -0.488,-0.106 -1.039,-0.219 -1.649,-0.34 -0.613,-0.105 -1.257,-0.219 -1.937,-0.34 -0.684,-0.121 -1.207,-0.218 -1.574,-0.289 -1.082,-2.164 -2.653,-4.125 -4.711,-5.89 z"
           inkscape:connector-curvature="0" />
        <path
           id="path3031"
           style="fill:#c80000;fill-opacity:1;fill-rule:nonzero;stroke:none"
           d="m 235.668,411.347 0,-0.653 c 0,-1.031 0.25,-1.832 0.758,-2.41 0.504,-0.574 1.168,-0.863 1.988,-0.863 0.856,0 1.738,0.199 2.645,0.602 0.925,0.402 1.839,0.933 2.75,1.597 0.906,0.664 2.015,1.555 3.324,2.668 l 0,-1.594 c -1.973,-2.375 -3.824,-4.199 -5.551,-5.472 -1.727,-1.258 -3.48,-1.887 -5.262,-1.887 -1.554,0 -2.785,0.606 -3.691,1.809 -0.906,1.203 -1.359,2.851 -1.359,4.949 0,1.832 0.425,3.488 1.281,4.973 0.855,1.5 2.25,3.078 4.187,4.738 1.328,1.133 2.645,1.988 3.953,2.566 1.309,0.574 2.481,0.864 3.508,0.864 0.821,0 1.469,-0.192 1.938,-0.579 0.488,-0.363 0.734,-0.921 0.734,-1.675 0,-1.098 -0.41,-2.196 -1.23,-3.297 -0.821,-1.082 -2.078,-2.164 -3.77,-3.246 -1.676,-1.067 -3.742,-2.094 -6.203,-3.09 z m 0.262,1.703 c 1.57,0.609 2.914,1.371 4.031,2.277 1.117,0.907 1.937,1.77 2.461,2.59 0.539,0.84 0.808,1.449 0.808,1.832 0,0.402 -0.183,0.606 -0.546,0.606 -0.317,0 -0.832,-0.204 -1.547,-0.606 -0.696,-0.398 -1.414,-0.922 -2.145,-1.57 -0.715,-0.645 -1.363,-1.403 -1.937,-2.278 -0.578,-0.871 -0.953,-1.824 -1.125,-2.851 z"
           inkscape:connector-curvature="0" />
        <path
           id="path3033"
           style="fill:#c80000;fill-opacity:1;fill-rule:nonzero;stroke:none"
           d="m 278.023,412.237 0,-1.753 c -1.867,-1.833 -3.394,-3.254 -4.582,-4.266 -1.168,-1.012 -2.269,-1.801 -3.296,-2.359 -1.012,-0.555 -2.008,-0.836 -2.985,-0.836 -0.961,0 -1.844,0.375 -2.644,1.125 -0.805,0.769 -1.43,1.761 -1.887,2.984 -0.453,1.238 -0.68,2.551 -0.68,3.926 0,1.187 0.262,2.246 0.785,3.168 0.524,0.925 1.536,2.121 3.039,3.59 1.778,1.742 3.43,3.085 4.946,4.031 1.535,0.957 2.742,1.437 3.613,1.437 0.629,0 1.16,-0.218 1.598,-0.652 0.437,-0.438 0.656,-0.988 0.656,-1.652 0,-0.559 -0.289,-1.352 -0.867,-2.379 -0.574,-1.032 -1.219,-1.93 -1.938,-2.7 -0.715,-0.75 -1.281,-1.125 -1.699,-1.125 -0.453,0 -0.68,0.247 -0.68,0.735 0.016,0.14 0.024,0.269 0.024,0.39 0.019,0.125 0.027,0.247 0.027,0.368 0,0.211 -0.078,0.324 -0.234,0.34 -0.141,0.035 -0.317,-0.024 -0.524,-0.184 -1.746,-1.219 -2.941,-2.086 -3.59,-2.59 -0.644,-0.488 -1.16,-0.988 -1.542,-1.492 -0.368,-0.508 -0.551,-1.039 -0.551,-1.598 0,-1.031 0.332,-1.867 0.996,-2.511 0.664,-0.649 1.527,-0.969 2.59,-0.969 1.101,0 2.418,0.418 3.953,1.254 1.554,0.855 3.379,2.097 5.472,3.718 z"
           inkscape:connector-curvature="0" />
        <path
           id="path3035"
           style="fill:#c80000;fill-opacity:1;fill-rule:nonzero;stroke:none"
           d="m 294.805,412.343 0,-1.754 c -1.153,-1.047 -2.078,-1.746 -2.774,-2.094 -0.699,-0.351 -1.703,-0.488 -3.011,-0.422 -2.27,-2.687 -4.27,-4.031 -5.997,-4.031 -0.976,0 -1.867,0.324 -2.668,0.969 -0.804,0.648 -1.449,1.527 -1.937,2.644 -0.473,1.118 -0.707,2.368 -0.707,3.746 0,1.118 0.367,2.356 1.098,3.715 0.75,1.364 1.711,2.629 2.879,3.797 1.187,1.188 2.453,2.137 3.796,2.856 1.344,0.73 2.594,1.097 3.743,1.097 0.82,0 1.468,-0.132 1.937,-0.394 0.473,-0.242 0.707,-0.59 0.707,-1.047 0,-0.348 -0.199,-0.75 -0.601,-1.203 0.664,-0.141 1.117,-0.375 1.363,-0.707 0.242,-0.313 0.367,-0.899 0.367,-1.754 0,-0.836 -0.203,-1.895 -0.605,-3.168 -0.383,-1.274 -0.915,-2.469 -1.594,-3.586 l 0.469,-0.473 0.394,0 c 0.297,0 0.582,0.071 0.863,0.211 0.297,0.156 0.559,0.313 0.786,0.473 0.226,0.172 0.722,0.547 1.492,1.125 z m -5.395,6.883 c -1.445,-0.871 -2.687,-1.664 -3.715,-2.379 -1.031,-0.699 -1.902,-1.414 -2.617,-2.149 -0.719,-0.714 -1.195,-1.441 -1.441,-2.172 -0.438,-1.957 -0.657,-3.011 -0.657,-3.167 0,-1.153 0.805,-1.727 2.411,-1.727 0.75,0 2.007,0.644 3.769,1.934 -0.297,0.82 -0.445,1.609 -0.445,2.359 0,1.098 0.226,2.215 0.68,3.348 0.457,1.152 1.128,2.472 2.015,3.953 z"
           inkscape:connector-curvature="0" />
        <path
           id="path3037"
           style="fill:#c80000;fill-opacity:1;fill-rule:nonzero;stroke:none"
           d="m 306.691,408.702 c 2.407,2.129 4.477,3.981 6.204,5.551 1.726,1.59 3.082,2.836 4.058,3.742 0.992,0.91 1.867,1.676 2.617,2.305 0.75,0.629 1.231,0.941 1.442,0.941 0.398,0.02 0.785,-0.398 1.148,-1.254 0.367,-0.839 0.551,-1.511 0.551,-2.015 0,-0.332 -0.559,-1.117 -1.676,-2.356 -1.097,-1.222 -1.926,-2.199 -2.484,-2.933 -0.543,-0.735 -0.813,-1.5 -0.813,-2.305 0,-0.469 0.157,-0.855 0.469,-1.152 0.316,-0.278 0.691,-0.418 1.129,-0.418 0.504,0 1.105,0.261 1.805,0.785 0.714,0.523 1.832,1.457 3.351,2.801 l 0,-1.86 c -1.519,-1.429 -2.898,-2.668 -4.137,-3.715 -1.238,-1.031 -2.32,-1.808 -3.246,-2.332 -0.906,-0.503 -1.668,-0.757 -2.277,-0.757 -0.543,0 -0.996,0.199 -1.363,0.601 -0.364,0.418 -0.547,0.934 -0.547,1.547 0,0.59 0.101,1.195 0.312,1.805 0.211,0.609 0.532,1.336 0.969,2.172 0.438,0.839 1.012,1.843 1.727,3.011 0.718,1.188 1.371,2.27 1.965,3.246 -1.782,-1.449 -3.36,-2.843 -4.739,-4.187 -1.379,-1.344 -2.504,-2.524 -3.379,-3.535 -0.871,-0.996 -1.558,-1.781 -2.066,-2.356 -0.977,-1.082 -1.887,-1.625 -2.723,-1.625 -0.906,0 -1.363,0.649 -1.363,1.938 0,0.523 0.344,1.457 1.023,2.801 0.68,1.363 1.649,3.089 2.907,5.183 0.105,0.141 0.156,0.36 0.156,0.656 0,0.348 -0.176,0.524 -0.523,0.524 -0.383,0 -0.942,-0.367 -1.676,-1.102 -0.715,-0.715 -2.114,-2.222 -4.188,-4.527 -0.578,-0.645 -1.23,-1.492 -1.965,-2.539 -0.714,-1.031 -1.23,-1.719 -1.543,-2.07 -0.316,-0.348 -0.628,-0.524 -0.945,-0.524 -0.625,0 -1.211,0.559 -1.754,1.676 -0.539,1.117 -0.808,2.418 -0.808,3.902 0,1.082 0.171,2.016 0.523,2.801 0.367,0.785 0.922,1.762 1.676,2.934 1.168,1.691 2.117,2.894 2.851,3.609 0.75,0.734 1.536,1.102 2.356,1.102 0.508,0 0.933,-0.106 1.285,-0.317 0.348,-0.191 0.523,-0.461 0.523,-0.808 0,-0.368 -0.324,-0.969 -0.968,-1.809 -0.629,-0.836 -1.434,-1.699 -2.41,-2.59 -0.524,-0.508 -1.02,-1.137 -1.493,-1.887 -0.468,-0.73 -0.707,-1.265 -0.707,-1.597 0,-0.469 0.184,-0.707 0.551,-0.707 0.297,0 1.047,0.613 2.25,1.836 1.207,1.218 2.524,2.547 3.953,3.976 1.449,1.449 2.785,2.645 4.008,3.586 1.238,0.961 2.285,1.442 3.141,1.442 0.523,0 0.949,-0.2 1.281,-0.602 0.351,-0.383 0.523,-0.863 0.523,-1.441 0,-0.383 -0.261,-1.082 -0.785,-2.094 -0.523,-0.996 -1.289,-2.235 -2.304,-3.719 -0.993,-1.465 -2.286,-3.246 -3.872,-5.34 z"
           inkscape:connector-curvature="0" />
        <path
           id="path3039"
           style="fill:#c80000;fill-opacity:1;fill-rule:nonzero;stroke:none"
           d="m 355.199,412.237 0,-1.753 c -1.867,-1.833 -3.394,-3.254 -4.582,-4.266 -1.168,-1.012 -2.269,-1.801 -3.297,-2.359 -1.011,-0.555 -2.007,-0.836 -2.984,-0.836 -0.961,0 -1.844,0.375 -2.645,1.125 -0.804,0.769 -1.429,1.761 -1.886,2.984 -0.453,1.238 -0.68,2.551 -0.68,3.926 0,1.187 0.262,2.246 0.785,3.168 0.524,0.925 1.535,2.121 3.039,3.59 1.778,1.742 3.43,3.085 4.946,4.031 1.535,0.957 2.742,1.437 3.613,1.437 0.629,0 1.16,-0.218 1.597,-0.652 0.438,-0.438 0.653,-0.988 0.653,-1.652 0,-0.559 -0.285,-1.352 -0.863,-2.379 -0.575,-1.032 -1.219,-1.93 -1.938,-2.7 -0.715,-0.75 -1.281,-1.125 -1.699,-1.125 -0.453,0 -0.68,0.247 -0.68,0.735 0.016,0.14 0.024,0.269 0.024,0.39 0.019,0.125 0.027,0.247 0.027,0.368 0,0.211 -0.078,0.324 -0.234,0.34 -0.141,0.035 -0.317,-0.024 -0.524,-0.184 -1.746,-1.219 -2.941,-2.086 -3.59,-2.59 -0.644,-0.488 -1.16,-0.988 -1.543,-1.492 -0.367,-0.508 -0.55,-1.039 -0.55,-1.598 0,-1.031 0.332,-1.867 0.996,-2.511 0.664,-0.649 1.527,-0.969 2.589,-0.969 1.102,0 2.418,0.418 3.954,1.254 1.554,0.855 3.378,2.097 5.472,3.718 z"
           inkscape:connector-curvature="0" />
        <path
           id="path3041"
           style="fill:#c80000;fill-opacity:1;fill-rule:nonzero;stroke:none"
           d="m 358.211,416.976 c 2.652,2.41 5.227,4.199 7.723,5.367 2.496,1.168 4.421,1.754 5.785,1.754 0.367,0 0.707,-0.156 1.019,-0.473 0.317,-0.297 0.559,-0.644 0.735,-1.047 0.191,-0.398 0.289,-0.695 0.289,-0.89 0,-0.313 -0.125,-0.547 -0.367,-0.707 -0.247,-0.137 -0.672,-0.313 -1.286,-0.524 0.125,-0.277 0.282,-0.637 0.473,-1.07 0.191,-0.438 0.34,-0.797 0.445,-1.074 0.106,-0.262 0.157,-0.496 0.157,-0.707 0,-0.418 -0.426,-1.204 -1.282,-2.356 -0.839,-1.137 -1.433,-1.973 -1.781,-2.515 -0.332,-0.54 -0.496,-1.204 -0.496,-1.989 0,-1.293 0.594,-1.937 1.781,-1.937 1.219,0 3.133,1.144 5.731,3.429 l 0,-1.597 c -4.414,-4.903 -7.574,-7.356 -9.477,-7.356 -0.68,0 -1.168,0.227 -1.465,0.68 -0.281,0.437 -0.418,1.094 -0.418,1.965 0,1.379 0.496,3.375 1.493,5.996 -2.551,-2.828 -4.442,-4.844 -5.684,-6.047 -1.238,-1.187 -2.258,-1.781 -3.063,-1.781 -0.382,0 -0.863,0.332 -1.437,0.992 -0.578,0.664 -1.094,1.52 -1.547,2.566 -0.434,1.067 -0.652,2.164 -0.652,3.301 0,0.82 0.078,1.5 0.234,2.039 0.156,0.559 0.461,1.129 0.918,1.703 0.453,0.575 1.176,1.336 2.172,2.278 z m 12.539,2.879 c -4.539,-2.075 -7.773,-3.84 -9.711,-5.286 -1.922,-1.449 -2.883,-2.941 -2.883,-4.476 0,-0.559 0.098,-1.024 0.289,-1.391 0.192,-0.347 0.453,-0.523 0.785,-0.523 0.192,0 0.532,0.125 1.024,0.367 1.832,1.082 3.508,2.488 5.023,4.215 1.52,1.746 3.344,4.109 5.473,7.094 z"
           inkscape:connector-curvature="0" />
        <path
           id="path3043"
           style="fill:#c80000;fill-opacity:1;fill-rule:nonzero;stroke:none"
           d="m 376.824,411.558 0,0.629 c 4.504,4.746 7.602,8.07 9.293,9.972 0.383,2.149 1.309,3.219 2.774,3.219 0.367,0 0.761,-0.102 1.179,-0.312 l 0.157,-0.497 c -0.071,-0.21 -0.106,-0.507 -0.106,-0.89 0,-0.332 0.125,-0.953 0.367,-1.86 0.262,-0.89 0.465,-1.64 0.602,-2.25 0.14,-0.613 0.211,-1.3 0.211,-2.07 0,-1.152 -0.262,-2.258 -0.785,-3.324 -0.524,-1.047 -1.286,-2.059 -2.278,-3.035 -0.996,-0.961 -2.277,-1.949 -3.847,-2.961 0.625,-0.106 1.125,-0.156 1.492,-0.156 0.715,0 1.48,0.175 2.301,0.523 0.839,0.367 1.687,0.848 2.539,1.441 0.875,0.61 1.886,1.395 3.039,2.356 l 0,-1.754 c -2.235,-2.184 -4.235,-3.84 -5.996,-4.977 -1.762,-1.113 -3.282,-1.671 -4.555,-1.671 -1.641,0 -3.16,0.695 -4.555,2.093 -0.82,0.836 -1.336,1.641 -1.543,2.407 -0.195,0.769 -0.289,1.808 -0.289,3.117 z m 9.766,4.004 -0.473,3.824 c -1.082,-1.223 -3.394,-3.57 -6.937,-7.043 1.047,-0.227 1.761,-0.531 2.148,-0.918 0.383,-0.383 0.922,-1.125 1.621,-2.223 1.188,0.489 2.094,1.153 2.723,1.989 0.644,0.855 0.969,2.015 0.969,3.48 0,0.176 -0.008,0.332 -0.028,0.473 0,0.14 -0.008,0.277 -0.023,0.418 z"
           inkscape:connector-curvature="0" />
        <path
           id="path3045"
           style="fill:#c80000;fill-opacity:1;fill-rule:nonzero;stroke:none"
           d="m 409.441,412.237 0,-1.753 c -1.867,-1.833 -3.394,-3.254 -4.582,-4.266 -1.168,-1.012 -2.265,-1.801 -3.296,-2.359 -1.012,-0.555 -2.008,-0.836 -2.985,-0.836 -0.961,0 -1.84,0.375 -2.644,1.125 -0.801,0.769 -1.43,1.761 -1.883,2.984 -0.457,1.238 -0.684,2.551 -0.684,3.926 0,1.187 0.262,2.246 0.785,3.168 0.524,0.925 1.539,2.121 3.039,3.59 1.782,1.742 3.43,3.085 4.946,4.031 1.539,0.957 2.742,1.437 3.613,1.437 0.629,0 1.16,-0.218 1.598,-0.652 0.437,-0.438 0.656,-0.988 0.656,-1.652 0,-0.559 -0.289,-1.352 -0.863,-2.379 -0.578,-1.032 -1.223,-1.93 -1.938,-2.7 -0.719,-0.75 -1.285,-1.125 -1.703,-1.125 -0.453,0 -0.68,0.247 -0.68,0.735 0.016,0.14 0.024,0.269 0.024,0.39 0.019,0.125 0.027,0.247 0.027,0.368 0,0.211 -0.078,0.324 -0.234,0.34 -0.141,0.035 -0.317,-0.024 -0.524,-0.184 -1.746,-1.219 -2.941,-2.086 -3.586,-2.59 -0.648,-0.488 -1.164,-0.988 -1.547,-1.492 -0.367,-0.508 -0.55,-1.039 -0.55,-1.598 0,-1.031 0.332,-1.867 0.996,-2.511 0.664,-0.649 1.527,-0.969 2.594,-0.969 1.097,0 2.414,0.418 3.953,1.254 1.55,0.855 3.375,2.097 5.468,3.718 z"
           inkscape:connector-curvature="0" />
        <path
           id="path3047"
           style="fill:#c80000;fill-opacity:1;fill-rule:nonzero;stroke:none"
           d="m 412.453,416.976 c 2.652,2.41 5.227,4.199 7.723,5.367 2.496,1.168 4.426,1.754 5.785,1.754 0.367,0 0.707,-0.156 1.019,-0.473 0.317,-0.297 0.559,-0.644 0.735,-1.047 0.191,-0.398 0.289,-0.695 0.289,-0.89 0,-0.313 -0.121,-0.547 -0.367,-0.707 -0.246,-0.137 -0.672,-0.313 -1.282,-0.524 0.122,-0.277 0.278,-0.637 0.469,-1.07 0.192,-0.438 0.34,-0.797 0.446,-1.074 0.105,-0.262 0.156,-0.496 0.156,-0.707 0,-0.418 -0.426,-1.204 -1.281,-2.356 -0.836,-1.137 -1.43,-1.973 -1.782,-2.515 -0.332,-0.54 -0.496,-1.204 -0.496,-1.989 0,-1.293 0.594,-1.937 1.781,-1.937 1.219,0 3.133,1.144 5.731,3.429 l 0,-1.597 c -4.414,-4.903 -7.574,-7.356 -9.477,-7.356 -0.679,0 -1.168,0.227 -1.464,0.68 -0.278,0.437 -0.418,1.094 -0.418,1.965 0,1.379 0.496,3.375 1.492,5.996 -2.551,-2.828 -4.442,-4.844 -5.68,-6.047 -1.242,-1.187 -2.262,-1.781 -3.066,-1.781 -0.383,0 -0.864,0.332 -1.438,0.992 -0.578,0.664 -1.09,1.52 -1.547,2.566 -0.433,1.067 -0.652,2.164 -0.652,3.301 0,0.82 0.078,1.5 0.234,2.039 0.157,0.559 0.465,1.129 0.918,1.703 0.453,0.575 1.176,1.336 2.172,2.278 z m 12.539,2.879 c -4.539,-2.075 -7.773,-3.84 -9.711,-5.286 -1.922,-1.449 -2.879,-2.941 -2.879,-4.476 0,-0.559 0.094,-1.024 0.286,-1.391 0.191,-0.347 0.453,-0.523 0.785,-0.523 0.191,0 0.535,0.125 1.023,0.367 1.832,1.082 3.508,2.488 5.024,4.215 1.519,1.746 3.343,4.109 5.472,7.094 z"
           inkscape:connector-curvature="0" />
        <path
           id="path3049"
           style="fill:#c80000;fill-opacity:1;fill-rule:nonzero;stroke:none"
           d="m 434.602,412.237 -0.473,-2.199 c -0.07,-0.277 -0.106,-0.594 -0.106,-0.941 0,-0.942 0.395,-1.414 1.18,-1.414 0.75,0 2.574,1.465 5.473,4.398 0.015,1.133 0.433,2.442 1.254,3.926 0.84,1.484 1.754,2.785 2.75,3.902 1.011,1.117 1.761,1.676 2.25,1.676 0.769,0 1.152,-0.508 1.152,-1.519 0,-0.61 -0.148,-1.364 -0.445,-2.25 -0.297,-0.875 -0.731,-1.825 -1.309,-2.856 -0.574,-1.012 -1.281,-2.059 -2.121,-3.141 0.438,-0.785 0.883,-1.179 1.336,-1.179 0.383,0 0.805,0.133 1.258,0.394 0.469,0.278 1.054,0.696 1.754,1.254 l 0,-1.754 c -0.977,-0.765 -1.754,-1.289 -2.332,-1.57 -0.559,-0.277 -1.282,-0.418 -2.172,-0.418 -0.348,0 -0.977,0.234 -1.883,0.707 -1.781,-1.883 -3.23,-3.297 -4.348,-4.242 -1.117,-0.922 -2.023,-1.387 -2.722,-1.387 -1.203,0 -2.235,0.715 -3.09,2.149 -0.836,1.449 -1.254,3.035 -1.254,4.761 0,2.325 1.309,5.106 3.926,8.352 0.785,0.98 1.414,1.64 1.883,1.992 0.488,0.363 1.039,0.547 1.652,0.547 0.523,0 1.019,-0.094 1.492,-0.285 0.469,-0.192 0.707,-0.422 0.707,-0.684 0,-0.871 -0.586,-2.152 -1.754,-3.847 -1.172,-1.676 -2.523,-3.133 -4.058,-4.372 z"
           inkscape:connector-curvature="0" />
        <path
           id="path3051"
           style="fill:#c80000;fill-opacity:1;fill-rule:nonzero;stroke:none"
           d="m 452.742,411.347 0,-0.653 c 0,-1.031 0.254,-1.832 0.758,-2.41 0.508,-0.574 1.172,-0.863 1.992,-0.863 0.856,0 1.735,0.199 2.645,0.602 0.922,0.402 1.84,0.933 2.746,1.597 0.91,0.664 2.015,1.555 3.324,2.668 l 0,-1.594 c -1.969,-2.375 -3.82,-4.199 -5.547,-5.472 -1.73,-1.258 -3.484,-1.887 -5.262,-1.887 -1.554,0 -2.785,0.606 -3.691,1.809 -0.91,1.203 -1.363,2.851 -1.363,4.949 0,1.832 0.429,3.488 1.285,4.973 0.851,1.5 2.25,3.078 4.187,4.738 1.325,1.133 2.645,1.988 3.954,2.566 1.308,0.574 2.476,0.864 3.507,0.864 0.821,0 1.465,-0.192 1.938,-0.579 0.488,-0.363 0.73,-0.921 0.73,-1.675 0,-1.098 -0.41,-2.196 -1.23,-3.297 -0.82,-1.082 -2.074,-2.164 -3.77,-3.246 -1.675,-1.067 -3.742,-2.094 -6.203,-3.09 z m 0.262,1.703 c 1.57,0.609 2.914,1.371 4.031,2.277 1.117,0.907 1.938,1.77 2.461,2.59 0.543,0.84 0.813,1.449 0.813,1.832 0,0.402 -0.184,0.606 -0.551,0.606 -0.313,0 -0.828,-0.204 -1.543,-0.606 -0.699,-0.398 -1.414,-0.922 -2.149,-1.57 -0.714,-0.645 -1.359,-1.403 -1.937,-2.278 -0.574,-0.871 -0.949,-1.824 -1.125,-2.851 z"
           inkscape:connector-curvature="0" />
        <path
           id="path3053"
           style="fill:#c80000;fill-opacity:1;fill-rule:nonzero;stroke:none"
           d="m 476.773,412.577 0,-1.937 c -3.644,-4.832 -6.613,-7.25 -8.898,-7.25 -1.238,0 -2.219,0.672 -2.934,2.015 -0.699,1.36 -1.046,3.141 -1.046,5.34 0,1.781 0.418,3.891 1.257,6.336 0.836,2.461 1.953,4.949 3.352,7.461 1.41,2.531 2.871,4.731 4.371,6.598 1.516,1.883 2.922,3.203 4.215,3.953 0.523,0.312 0.933,0.469 1.23,0.469 0.368,0 0.61,-0.164 0.731,-0.496 0.125,-0.313 0.183,-0.864 0.183,-1.649 0,-2.426 -0.984,-5.41 -2.957,-8.953 -1.972,-3.527 -4.722,-7.129 -8.246,-10.813 -0.176,-0.906 -0.261,-1.605 -0.261,-2.093 0,-1.117 0.234,-2.024 0.707,-2.723 0.488,-0.699 1.16,-1.047 2.015,-1.047 0.438,0 0.906,0.164 1.414,0.496 0.504,0.348 1.039,0.778 1.598,1.282 0.559,0.507 1.648,1.511 3.269,3.011 z m -7.824,4.715 c 0.906,0.887 1.778,1.902 2.617,3.035 0.856,1.133 1.657,2.348 2.407,3.637 0.75,1.293 1.336,2.453 1.754,3.484 0.437,1.028 0.656,1.805 0.656,2.328 0,0.403 -0.141,0.602 -0.418,0.602 -0.106,0 -0.309,-0.094 -0.606,-0.285 -1.062,-0.875 -2.257,-2.586 -3.586,-5.133 -1.324,-2.531 -2.269,-5.086 -2.824,-7.668 z"
           inkscape:connector-curvature="0" />
        <path
           id="path3055"
           style="fill:#000000;fill-opacity:1;fill-rule:nonzero;stroke:none"
           d="m 224.523,374.659 3.922,-1.242 c -0.601,-2.187 -1.605,-3.812 -3.007,-4.879 -1.391,-1.058 -3.165,-1.586 -5.313,-1.586 -2.66,0 -4.848,0.907 -6.562,2.719 -1.711,1.824 -2.567,4.309 -2.567,7.461 0,3.336 0.859,5.922 2.582,7.762 1.723,1.851 3.985,2.773 6.793,2.773 2.449,0 4.438,-0.723 5.969,-2.172 0.91,-0.855 1.594,-2.086 2.051,-3.687 l -4.004,-0.957 c -0.239,1.039 -0.735,1.859 -1.489,2.457 -0.75,0.601 -1.66,0.902 -2.734,0.902 -1.484,0 -2.691,-0.531 -3.621,-1.598 -0.922,-1.066 -1.379,-2.793 -1.379,-5.179 0,-2.532 0.453,-4.336 1.367,-5.41 0.91,-1.075 2.094,-1.614 3.551,-1.614 1.074,0 2,0.344 2.773,1.028 0.774,0.679 1.333,1.757 1.668,3.222 z"
           inkscape:connector-curvature="0" />
        <path
           id="path3057"
           style="fill:#000000;fill-opacity:1;fill-rule:nonzero;stroke:none"
           d="m 234.773,377.378 -3.484,0.629 c 0.391,1.402 1.063,2.441 2.02,3.117 0.957,0.672 2.379,1.012 4.265,1.012 1.711,0 2.989,-0.207 3.824,-0.617 0.84,-0.399 1.426,-0.914 1.766,-1.543 0.344,-0.621 0.516,-1.762 0.516,-3.43 l -0.039,-4.484 c 0,-1.274 0.058,-2.215 0.175,-2.828 0.129,-0.602 0.364,-1.247 0.7,-1.938 l -3.801,0 c -0.098,0.254 -0.223,0.633 -0.367,1.133 -0.063,0.226 -0.11,0.379 -0.137,0.449 -0.656,-0.637 -1.359,-1.113 -2.106,-1.434 -0.746,-0.32 -1.542,-0.476 -2.39,-0.476 -1.492,0 -2.672,0.402 -3.539,1.215 -0.856,0.812 -1.285,1.836 -1.285,3.074 0,0.82 0.195,1.551 0.589,2.187 0.391,0.645 0.938,1.137 1.637,1.477 0.711,0.344 1.731,0.645 3.063,0.898 1.793,0.34 3.039,0.653 3.73,0.946 l 0,0.383 c 0,0.738 -0.183,1.261 -0.547,1.57 -0.363,0.32 -1.05,0.476 -2.062,0.476 -0.684,0 -1.219,-0.132 -1.602,-0.406 -0.379,-0.265 -0.691,-0.734 -0.926,-1.41 z m 5.137,-3.113 c -0.492,-0.164 -1.269,-0.36 -2.336,-0.59 -1.066,-0.227 -1.765,-0.449 -2.09,-0.668 -0.504,-0.356 -0.754,-0.809 -0.754,-1.356 0,-0.535 0.2,-1 0.602,-1.39 0.402,-0.395 0.91,-0.59 1.531,-0.59 0.692,0 1.352,0.23 1.981,0.684 0.465,0.347 0.769,0.769 0.914,1.269 0.101,0.328 0.152,0.953 0.152,1.875 l 0,0.766 z"
           inkscape:connector-curvature="0" />
        <path
           id="path3059"
           style="fill:#000000;fill-opacity:1;fill-rule:nonzero;stroke:none"
           d="m 260.68,367.296 -3.84,0 0,7.406 c 0,1.567 -0.082,2.578 -0.246,3.032 -0.164,0.464 -0.434,0.824 -0.805,1.082 -0.363,0.253 -0.809,0.378 -1.324,0.378 -0.668,0 -1.262,-0.179 -1.793,-0.543 -0.527,-0.367 -0.891,-0.847 -1.094,-1.449 -0.191,-0.601 -0.285,-1.715 -0.285,-3.336 l 0,-6.57 -3.84,0 0,14.512 3.567,0 0,-2.133 c 1.265,1.641 2.859,2.461 4.781,2.461 0.847,0 1.621,-0.156 2.324,-0.465 0.703,-0.301 1.23,-0.687 1.586,-1.164 0.363,-0.473 0.613,-1.012 0.75,-1.609 0.148,-0.602 0.219,-1.465 0.219,-2.586 l 0,-9.016 z"
           inkscape:connector-curvature="0" />
        <path
           id="path3061"
           style="fill:#000000;fill-opacity:1;fill-rule:nonzero;stroke:none"
           d="m 267.457,377.378 -3.484,0.629 c 0.394,1.402 1.066,2.441 2.023,3.117 0.957,0.672 2.379,1.012 4.262,1.012 1.715,0 2.988,-0.207 3.828,-0.617 0.836,-0.399 1.426,-0.914 1.762,-1.543 0.347,-0.621 0.519,-1.762 0.519,-3.43 l -0.039,-4.484 c 0,-1.274 0.059,-2.215 0.176,-2.828 0.129,-0.602 0.359,-1.247 0.699,-1.938 l -3.801,0 c -0.101,0.254 -0.222,0.633 -0.367,1.133 -0.066,0.226 -0.109,0.379 -0.137,0.449 -0.656,-0.637 -1.359,-1.113 -2.105,-1.434 -0.746,-0.32 -1.543,-0.476 -2.391,-0.476 -1.496,0 -2.675,0.402 -3.539,1.215 -0.859,0.812 -1.285,1.836 -1.285,3.074 0,0.82 0.195,1.551 0.586,2.187 0.395,0.645 0.938,1.137 1.641,1.477 0.711,0.344 1.73,0.645 3.062,0.898 1.793,0.34 3.035,0.653 3.731,0.946 l 0,0.383 c 0,0.738 -0.184,1.261 -0.547,1.57 -0.367,0.32 -1.055,0.476 -2.067,0.476 -0.679,0 -1.214,-0.132 -1.597,-0.406 -0.383,-0.265 -0.692,-0.734 -0.93,-1.41 z m 5.141,-3.113 c -0.493,-0.164 -1.274,-0.36 -2.34,-0.59 -1.063,-0.227 -1.762,-0.449 -2.09,-0.668 -0.5,-0.356 -0.75,-0.809 -0.75,-1.356 0,-0.535 0.199,-1 0.602,-1.39 0.398,-0.395 0.91,-0.59 1.531,-0.59 0.691,0 1.351,0.23 1.98,0.684 0.465,0.347 0.77,0.769 0.914,1.269 0.102,0.328 0.153,0.953 0.153,1.875 l 0,0.766 z"
           inkscape:connector-curvature="0" />
        <path
           id="path3063"
           style="fill:#000000;fill-opacity:1;fill-rule:nonzero;stroke:none"
           d="m 280.168,387.327 3.84,0 0,-20.031 -3.84,0 0,20.031 z"
           inkscape:connector-curvature="0" />
        <path
           id="path3065"
           style="fill:#000000;fill-opacity:1;fill-rule:nonzero;stroke:none"
           d="m 304.695,367.296 -3.84,0 0,14.469 c -1.402,-1.313 -3.058,-2.281 -4.96,-2.91 l 0,3.484 c 1.003,0.328 2.089,0.949 3.265,1.859 1.176,0.918 1.981,1.989 2.418,3.211 l 3.117,0 0,-20.113 z"
           inkscape:connector-curvature="0" />
        <path
           id="path3067"
           style="fill:#000000;fill-opacity:1;fill-rule:nonzero;stroke:none"
           d="m 310.313,372.609 3.714,0.453 c 0.118,-0.95 0.438,-1.672 0.957,-2.172 0.52,-0.504 1.149,-0.754 1.887,-0.754 0.793,0 1.457,0.301 1.996,0.902 0.543,0.602 0.817,1.414 0.817,2.434 0,0.965 -0.258,1.73 -0.778,2.293 -0.519,0.566 -1.152,0.847 -1.898,0.847 -0.492,0 -1.082,-0.093 -1.762,-0.285 l 0.422,3.129 c 1.039,-0.027 1.832,0.195 2.379,0.668 0.547,0.485 0.82,1.121 0.82,1.914 0,0.676 -0.203,1.211 -0.601,1.613 -0.403,0.403 -0.934,0.602 -1.602,0.602 -0.656,0 -1.215,-0.227 -1.68,-0.684 -0.464,-0.457 -0.746,-1.121 -0.847,-1.996 l -3.539,0.602 c 0.246,1.211 0.617,2.176 1.105,2.898 0.504,0.727 1.195,1.297 2.078,1.707 0.895,0.418 1.891,0.629 2.992,0.629 1.887,0 3.399,-0.601 4.54,-1.804 0.937,-0.985 1.406,-2.094 1.406,-3.332 0,-1.762 -0.961,-3.164 -2.883,-4.211 1.148,-0.246 2.062,-0.797 2.746,-1.653 0.691,-0.855 1.039,-1.89 1.039,-3.101 0,-1.758 -0.644,-3.258 -1.926,-4.496 -1.285,-1.239 -2.882,-1.86 -4.797,-1.86 -1.812,0 -3.316,0.52 -4.511,1.559 -1.192,1.047 -1.883,2.414 -2.074,4.098 z"
           inkscape:connector-curvature="0" />
        <path
           id="path3069"
           style="fill:#000000;fill-opacity:1;fill-rule:nonzero;stroke:none"
           d="m 334.172,376.476 7.543,0 0,-3.84 -7.543,0 0,3.84 z"
           inkscape:connector-curvature="0" />
        <path
           id="path3071"
           style="fill:#000000;fill-opacity:1;fill-rule:nonzero;stroke:none"
           d="m 351.73,367.296 0,20.031 3.934,0 8.199,-13.379 0,13.379 3.758,0 0,-20.031 -4.058,0 -8.075,13.063 0,-13.063 -3.758,0 z"
           inkscape:connector-curvature="0" />
        <path
           id="path3073"
           style="fill:#000000;fill-opacity:1;fill-rule:nonzero;stroke:none"
           d="m 371.914,367.296 0,20.031 14.852,0 0,-3.39 -10.809,0 0,-4.442 10.059,0 0,-3.375 -10.059,0 0,-5.449 11.191,0 0,-3.375 -15.234,0 z"
           inkscape:connector-curvature="0" />
        <path
           id="path3075"
           style="fill:#000000;fill-opacity:1;fill-rule:nonzero;stroke:none"
           d="m 395.113,367.296 0,16.641 -5.941,0 0,3.39 15.918,0 0,-3.39 -5.93,0 0,-16.641 -4.047,0 z"
           inkscape:connector-curvature="0" />
      </g>
    </g>
  </g>
</svg>
